<svg xmlns="http://www.w3.org/2000/svg" viewBox="0 0 256 256"><defs><style>.cls-1{fill:#f4ede3;}.cls-2{fill:#20231c;}.cls-3{fill:#7e7f34;}</style></defs><g id="Layer_2" data-name="Layer 2"><g id="LightMode"><rect class="cls-1" x="9" y="9" width="238" height="238" rx="24.67"/><path class="cls-2" d="M222.33,18A15.69,15.69,0,0,1,238,33.67V222.33A15.69,15.69,0,0,1,222.33,238H33.67A15.69,15.69,0,0,1,18,222.33V33.67A15.69,15.69,0,0,1,33.67,18H222.33m0-18H33.67A33.66,33.66,0,0,0,0,33.67V222.33A33.66,33.66,0,0,0,33.67,256H222.33A33.66,33.66,0,0,0,256,222.33V33.67A33.66,33.66,0,0,0,222.33,0Z"/><rect class="cls-2" x="28.85" y="113.97" width="192.89" height="25.46" rx="12.73" transform="translate(-52.89 125.71) rotate(-45)"/><circle class="cls-3" cx="81" cy="81" r="27"/><circle class="cls-3" cx="171" cy="172" r="27"/></g></g></svg>